<mxfile host="app.diagrams.net" modified="2021-05-18T12:36:03.263Z" agent="5.0 (Windows NT 10.0; Win64; x64) AppleWebKit/537.36 (KHTML, like Gecko) Chrome/90.0.4430.212 Safari/537.36" etag="QZT5LwO2t1KGY9ePZHFu" version="14.6.13" type="github">
  <diagram id="s1FAd_AgfW52bGK2yp9e" name="Page-1">
    <mxGraphModel dx="780" dy="1122" grid="1" gridSize="10" guides="1" tooltips="1" connect="1" arrows="1" fold="1" page="1" pageScale="1" pageWidth="827" pageHeight="1169" math="0" shadow="0">
      <root>
        <mxCell id="0" />
        <mxCell id="1" parent="0" />
        <mxCell id="KXGbyRWlH0LsL0UsSs6D-1" value="Start" style="ellipse;whiteSpace=wrap;html=1;" parent="1" vertex="1">
          <mxGeometry x="354" y="60" width="120" height="60" as="geometry" />
        </mxCell>
        <mxCell id="zzjIF3lNwweGvg3sCjhe-6" value="lagreTilSD()&lt;br style=&quot;font-size: 10px&quot;&gt;&lt;font size=&quot;1&quot;&gt;data mottatt blir lagret i en felles fil&lt;br&gt;&lt;/font&gt;" style="shape=process;whiteSpace=wrap;html=1;backgroundOutline=1;" parent="1" vertex="1">
          <mxGeometry x="354" y="360" width="120" height="60" as="geometry" />
        </mxCell>
        <mxCell id="mQ8JqH_8Vb1i8sTAiL1r-1" value="sendTilDB()&lt;br style=&quot;font-size: 10px&quot;&gt;&lt;font size=&quot;1&quot;&gt;Sender data til database i cloud i regelmessig intervall&lt;br&gt;&lt;/font&gt;" style="shape=process;whiteSpace=wrap;html=1;backgroundOutline=1;" parent="1" vertex="1">
          <mxGeometry x="520" y="360" width="120" height="60" as="geometry" />
        </mxCell>
        <mxCell id="mQ8JqH_8Vb1i8sTAiL1r-7" value="&lt;span style=&quot;color: rgb(0 , 0 , 0) ; font-family: &amp;#34;helvetica&amp;#34; ; font-size: 12px ; font-style: normal ; font-weight: 400 ; letter-spacing: normal ; text-align: center ; text-indent: 0px ; text-transform: none ; word-spacing: 0px ; background-color: rgb(248 , 249 , 250)&quot;&gt;setup()&lt;/span&gt;&lt;br style=&quot;color: rgb(0 , 0 , 0) ; font-family: &amp;#34;helvetica&amp;#34; ; font-size: 12px ; font-style: normal ; font-weight: 400 ; letter-spacing: normal ; text-align: center ; text-indent: 0px ; text-transform: none ; word-spacing: 0px ; background-color: rgb(248 , 249 , 250)&quot;&gt;&lt;font face=&quot;helvetica&quot;&gt;&lt;span style=&quot;font-size: 10px&quot;&gt;&lt;i&gt;gjør alle nødvendige oppsett for å starte Arduino&lt;br&gt;&lt;/i&gt;&lt;/span&gt;&lt;/font&gt;" style="shape=process;whiteSpace=wrap;html=1;backgroundOutline=1;" parent="1" vertex="1">
          <mxGeometry x="354" y="160" width="120" height="60" as="geometry" />
        </mxCell>
        <mxCell id="mQ8JqH_8Vb1i8sTAiL1r-8" value="" style="endArrow=classic;html=1;exitX=0.5;exitY=1;exitDx=0;exitDy=0;entryX=0.5;entryY=0;entryDx=0;entryDy=0;" parent="1" source="KXGbyRWlH0LsL0UsSs6D-1" target="mQ8JqH_8Vb1i8sTAiL1r-7" edge="1">
          <mxGeometry width="50" height="50" relative="1" as="geometry">
            <mxPoint x="580" y="110" as="sourcePoint" />
            <mxPoint x="630" y="60" as="targetPoint" />
          </mxGeometry>
        </mxCell>
        <mxCell id="mQ8JqH_8Vb1i8sTAiL1r-9" value="" style="endArrow=classic;html=1;exitX=0.5;exitY=1;exitDx=0;exitDy=0;entryX=0.5;entryY=0;entryDx=0;entryDy=0;" parent="1" source="mQ8JqH_8Vb1i8sTAiL1r-7" target="UrZbUVhcMlJA1jzlY9pw-3" edge="1">
          <mxGeometry width="50" height="50" relative="1" as="geometry">
            <mxPoint x="424" y="130" as="sourcePoint" />
            <mxPoint x="414" y="260" as="targetPoint" />
          </mxGeometry>
        </mxCell>
        <mxCell id="UrZbUVhcMlJA1jzlY9pw-3" value="&lt;span&gt;lytteTilData()&lt;/span&gt;&lt;br&gt;&lt;i&gt;&lt;font style=&quot;font-size: 10px&quot;&gt;Arduino lytter etter data fra klienter&lt;/font&gt;&lt;/i&gt;" style="shape=process;whiteSpace=wrap;html=1;backgroundOutline=1;" parent="1" vertex="1">
          <mxGeometry x="354" y="260" width="120" height="60" as="geometry" />
        </mxCell>
        <mxCell id="UrZbUVhcMlJA1jzlY9pw-7" value="&lt;span&gt;timeout()&lt;/span&gt;&lt;br&gt;&lt;span style=&quot;font-size: 10px&quot;&gt;&lt;i&gt;Kobler fra klienter ved mangel på innkommende data&lt;/i&gt;&lt;/span&gt;" style="shape=process;whiteSpace=wrap;html=1;backgroundOutline=1;" parent="1" vertex="1">
          <mxGeometry x="354" y="460" width="120" height="80" as="geometry" />
        </mxCell>
        <mxCell id="UrZbUVhcMlJA1jzlY9pw-10" value="" style="endArrow=classic;html=1;exitX=0.5;exitY=1;exitDx=0;exitDy=0;entryX=0.5;entryY=0;entryDx=0;entryDy=0;" parent="1" source="UrZbUVhcMlJA1jzlY9pw-3" target="zzjIF3lNwweGvg3sCjhe-6" edge="1">
          <mxGeometry width="50" height="50" relative="1" as="geometry">
            <mxPoint x="490" y="390" as="sourcePoint" />
            <mxPoint x="540" y="340" as="targetPoint" />
          </mxGeometry>
        </mxCell>
        <mxCell id="UrZbUVhcMlJA1jzlY9pw-11" value="" style="endArrow=classic;html=1;exitX=0.5;exitY=1;exitDx=0;exitDy=0;entryX=0.5;entryY=0;entryDx=0;entryDy=0;" parent="1" source="zzjIF3lNwweGvg3sCjhe-6" target="UrZbUVhcMlJA1jzlY9pw-7" edge="1">
          <mxGeometry width="50" height="50" relative="1" as="geometry">
            <mxPoint x="490" y="300" as="sourcePoint" />
            <mxPoint x="540" y="250" as="targetPoint" />
          </mxGeometry>
        </mxCell>
        <mxCell id="UrZbUVhcMlJA1jzlY9pw-13" value="" style="endArrow=classic;html=1;exitX=0;exitY=0.5;exitDx=0;exitDy=0;entryX=0;entryY=0.5;entryDx=0;entryDy=0;" parent="1" source="UrZbUVhcMlJA1jzlY9pw-7" target="UrZbUVhcMlJA1jzlY9pw-3" edge="1">
          <mxGeometry width="50" height="50" relative="1" as="geometry">
            <mxPoint x="490" y="390" as="sourcePoint" />
            <mxPoint x="280" y="310" as="targetPoint" />
            <Array as="points">
              <mxPoint x="320" y="500" />
              <mxPoint x="320" y="290" />
            </Array>
          </mxGeometry>
        </mxCell>
        <mxCell id="UrZbUVhcMlJA1jzlY9pw-15" value="" style="endArrow=classic;startArrow=classic;html=1;exitX=1;exitY=0.5;exitDx=0;exitDy=0;entryX=0;entryY=0.5;entryDx=0;entryDy=0;" parent="1" source="zzjIF3lNwweGvg3sCjhe-6" target="mQ8JqH_8Vb1i8sTAiL1r-1" edge="1">
          <mxGeometry width="50" height="50" relative="1" as="geometry">
            <mxPoint x="490" y="300" as="sourcePoint" />
            <mxPoint x="540" y="250" as="targetPoint" />
          </mxGeometry>
        </mxCell>
      </root>
    </mxGraphModel>
  </diagram>
</mxfile>
